<svg xmlns="http://www.w3.org/2000/svg" width="39.462" height="39.462" viewBox="0 0 39.462 39.462">
    <defs>
        <style>
            .cls-1{fill:#d5e2e9}
        </style>
    </defs>
    <g id="Grupo_2549" data-name="Grupo 2549" transform="translate(-424.68 -45)">
        <path id="Trazado_3562" data-name="Trazado 3562" class="cls-1" d="M469.632 53.965a1.729 1.729 0 0 1-1.729 1.729 1.729 1.729 0 0 1-1.729-1.729v-7.236A1.729 1.729 0 0 1 467.9 45a1.729 1.729 0 0 1 1.729 1.729z" transform="translate(-23.3)"/>
        <path id="Trazado_3563" data-name="Trazado 3563" class="cls-1" d="M481.618 59.579a1.729 1.729 0 0 1-2.362.633 1.729 1.729 0 0 1-.633-2.362l3.619-6.267a1.728 1.728 0 0 1 2.361-.633 1.728 1.728 0 0 1 .633 2.362z" transform="translate(-30.161 -3.211)"/>
        <path id="Trazado_3564" data-name="Trazado 3564" class="cls-1" d="M489.812 72.752a1.729 1.729 0 0 1-2.361-.633 1.728 1.728 0 0 1 .633-2.362l6.266-3.618a1.729 1.729 0 0 1 2.362.633 1.729 1.729 0 0 1-.633 2.362z" transform="translate(-35.118 -11.74)"/>
        <path id="Trazado_3565" data-name="Trazado 3565" class="cls-1" d="M492.018 89.953a1.729 1.729 0 0 1-1.729-1.729 1.73 1.73 0 0 1 1.729-1.729h7.236a1.729 1.729 0 0 1 1.729 1.729 1.73 1.73 0 0 1-1.729 1.729z" transform="translate(-36.842 -23.301)"/>
        <path id="Trazado_3566" data-name="Trazado 3566" class="cls-1" d="M487.645 101.939a1.729 1.729 0 0 1-.633-2.362 1.729 1.729 0 0 1 2.362-.633l6.267 3.618a1.729 1.729 0 0 1 .633 2.362 1.73 1.73 0 0 1-2.362.633z" transform="translate(-34.872 -30.162)"/>
        <path id="Trazado_3567" data-name="Trazado 3567" class="cls-1" d="M477.865 110.134a1.73 1.73 0 0 1 .633-2.362 1.73 1.73 0 0 1 2.362.632l3.618 6.267a1.73 1.73 0 0 1-.633 2.362 1.73 1.73 0 0 1-2.362-.633z" transform="translate(-29.736 -35.119)"/>
        <path id="Trazado_3568" data-name="Trazado 3568" class="cls-1" d="M465.3 112.34a1.729 1.729 0 0 1 1.729-1.729 1.729 1.729 0 0 1 1.729 1.728v7.237a1.729 1.729 0 0 1-1.729 1.729 1.73 1.73 0 0 1-1.73-1.729z" transform="translate(-22.808 -36.843)"/>
        <path id="Trazado_3569" data-name="Trazado 3569" class="cls-1" d="M448.678 107.967a1.729 1.729 0 0 1 2.362-.633 1.729 1.729 0 0 1 .633 2.362l-3.619 6.267a1.728 1.728 0 0 1-2.361.633 1.73 1.73 0 0 1-.634-2.362z" transform="translate(-11.313 -34.873)"/>
        <path id="Trazado_3570" data-name="Trazado 3570" class="cls-1" d="M437.092 98.186a1.729 1.729 0 0 1 2.362.633 1.728 1.728 0 0 1-.633 2.362l-6.267 3.618a1.728 1.728 0 0 1-2.361-.633 1.729 1.729 0 0 1 .632-2.362z" transform="translate(-2.965 -29.736)"/>
        <path id="Trazado_3571" data-name="Trazado 3571" class="cls-1" d="M433.645 85.619a1.729 1.729 0 0 1 1.728 1.729 1.729 1.729 0 0 1-1.728 1.729h-7.237a1.728 1.728 0 0 1-1.728-1.728 1.729 1.729 0 0 1 1.728-1.73z" transform="translate(0 -22.809)"/>
        <path id="Trazado_3572" data-name="Trazado 3572" class="cls-1" d="M439.258 69a1.729 1.729 0 0 1 .633 2.362 1.728 1.728 0 0 1-2.361.633l-6.267-3.618a1.729 1.729 0 0 1-.634-2.362 1.729 1.729 0 0 1 2.362-.634z" transform="translate(-3.211 -11.314)"/>
        <path id="Trazado_3573" data-name="Trazado 3573" class="cls-1" d="M452.43 57.413a1.728 1.728 0 0 1-.633 2.362 1.728 1.728 0 0 1-2.361-.632l-3.618-6.267a1.729 1.729 0 0 1 .633-2.362 1.729 1.729 0 0 1 2.362.632z" transform="translate(-11.74 -2.966)"/>
    </g>
</svg>
